<?xml version="1.0" standalone="no"?>
<!DOCTYPE svg PUBLIC "-//W3C//DTD SVG 20010904//EN"
 "http://www.w3.org/TR/2001/REC-SVG-20010904/DTD/svg10.dtd">
<svg version="1.0" xmlns="http://www.w3.org/2000/svg"
 width="229.000000pt" height="229.000000pt" viewBox="0 0 229.000000 229.000000"
 preserveAspectRatio="xMidYMid meet">
<metadata>
Created by potrace 1.11, written by Peter Selinger 2001-2013
</metadata>
<g transform="translate(0.000000,229.000000) scale(0.100000,-0.100000)"
fill="#000000" stroke="none">
<path d="M55 1862 c-33 -7 -45 -22 -38 -50 6 -26 76 -102 93 -102 5 0 15 -6
22 -13 7 -7 36 -26 63 -42 28 -15 61 -35 75 -44 14 -8 27 -16 30 -16 3 0 48
-26 100 -57 52 -31 112 -65 133 -77 64 -36 111 -63 142 -82 17 -10 53 -30 80
-44 28 -15 57 -32 65 -39 8 -7 22 -16 30 -19 32 -14 114 -65 117 -73 6 -18
-17 -35 -197 -139 -102 -59 -249 -145 -328 -191 -79 -46 -147 -84 -152 -84 -6
0 -10 -4 -10 -9 0 -5 -10 -13 -22 -17 -13 -4 -34 -15 -48 -24 -14 -9 -58 -39
-98 -66 -90 -59 -93 -63 -97 -114 -6 -82 -107 -75 1131 -75 915 0 1104 2 1118
14 32 27 7 161 -30 161 -8 0 -14 4 -14 8 0 5 -17 17 -37 28 -21 12 -204 117
-408 234 -203 117 -382 221 -397 229 -29 17 -42 37 -33 52 3 4 52 34 108 66
56 31 104 61 105 65 2 4 8 8 13 8 5 0 54 27 110 60 55 33 103 60 105 60 2 0
23 12 47 27 23 15 51 33 62 39 11 6 39 22 63 35 68 38 131 77 142 89 3 3 37
26 75 52 79 52 107 90 94 126 -5 13 -17 22 -31 23 -61 3 -2166 4 -2183 1z
m1771 -165 c10 -10 -14 -27 -151 -106 -60 -35 -126 -72 -145 -84 -19 -11 -48
-28 -65 -38 -16 -11 -36 -22 -44 -26 -8 -3 -63 -35 -123 -70 -60 -35 -113 -63
-119 -63 -5 0 -9 -4 -9 -9 0 -17 -53 6 -158 68 -57 33 -105 61 -108 61 -2 0
-27 15 -56 33 -29 18 -74 44 -100 57 -27 14 -48 28 -48 32 0 5 -6 8 -14 8 -7
0 -25 9 -40 21 -14 11 -26 17 -26 13 0 -4 -8 0 -17 8 -10 8 -38 26 -63 39 -24
13 -52 31 -62 39 -17 13 -17 15 -2 20 25 9 1341 6 1350 -3z m-562 -656 c36
-23 68 -41 71 -41 5 0 125 -70 155 -91 8 -5 27 -15 43 -22 15 -6 27 -15 27
-19 0 -4 4 -8 10 -8 11 0 319 -176 334 -191 5 -5 6 -12 2 -16 -4 -4 -338 -8
-743 -8 -554 0 -737 3 -744 12 -8 8 23 31 113 83 68 40 140 83 161 96 20 13
37 21 37 17 0 -5 4 -3 8 3 7 9 214 132 351 207 73 40 73 40 175 -22z"/>
</g>
</svg>
