<?xml version="1.0" standalone="no"?>
<!DOCTYPE svg PUBLIC "-//W3C//DTD SVG 20010904//EN"
 "http://www.w3.org/TR/2001/REC-SVG-20010904/DTD/svg10.dtd">
<svg version="1.0" xmlns="http://www.w3.org/2000/svg"
 width="1024.000000pt" height="1024.000000pt" viewBox="0 0 1024.000000 1024.000000"
 preserveAspectRatio="xMidYMid meet">
<metadata>
Created by potrace 1.11, written by Peter Selinger 2001-2013
</metadata>
<g transform="translate(0.000000,1024.000000) scale(0.100000,-0.100000)"
fill="#000000" stroke="none">
<path d="M424 8328 c-3 -4 -11 -5 -18 -2 -8 3 -17 1 -21 -5 -4 -8 -12 -8 -25
-1 -10 6 -21 6 -24 2 -3 -5 -20 -8 -38 -7 -18 0 -36 -4 -40 -10 -5 -6 -8 -5
-8 3 0 8 -5 10 -12 5 -7 -4 -20 -8 -28 -9 -30 -2 -70 -16 -70 -26 0 -5 -4 -7
-9 -4 -5 3 -12 -1 -15 -10 -3 -9 -11 -12 -18 -8 -7 4 -10 4 -6 -1 4 -4 0 -21
-8 -37 -14 -26 -16 -56 -13 -145 1 -13 5 -23 11 -23 5 0 6 -4 3 -10 -3 -5 -1
-10 5 -10 7 0 10 -7 6 -15 -3 -8 -1 -15 4 -15 6 0 10 -7 10 -15 0 -8 5 -15 10
-15 6 0 10 -5 10 -11 0 -20 278 -289 298 -289 5 0 17 -9 27 -20 10 -11 22 -20
27 -20 5 0 29 -14 54 -30 24 -17 44 -28 44 -25 0 3 8 -2 18 -10 61 -53 92 -75
106 -75 9 0 16 -4 16 -10 0 -5 7 -10 15 -10 8 0 15 -4 15 -10 0 -5 6 -10 13
-10 7 0 22 -8 33 -17 11 -10 26 -19 34 -21 8 -2 17 -7 20 -12 3 -4 30 -20 60
-36 30 -15 57 -32 58 -36 2 -5 8 -6 13 -2 5 3 9 1 9 -4 0 -6 10 -12 23 -16 13
-3 36 -17 52 -30 16 -14 31 -23 33 -21 2 2 13 -5 25 -15 11 -11 24 -17 29 -14
4 3 8 0 8 -7 0 -7 3 -9 6 -6 4 3 18 -3 32 -13 13 -11 31 -20 38 -20 8 0 14 -5
14 -11 0 -5 4 -7 10 -4 5 3 10 2 10 -3 0 -5 12 -15 28 -23 15 -8 29 -16 32
-19 5 -5 120 -67 157 -84 13 -6 23 -14 23 -18 0 -5 7 -8 15 -8 8 0 15 -4 15
-10 0 -5 9 -10 20 -10 11 0 20 -4 20 -9 0 -5 8 -11 18 -15 9 -3 40 -19 67 -36
28 -17 60 -35 73 -40 12 -5 22 -14 22 -20 0 -5 3 -10 8 -9 14 2 52 -13 52 -21
0 -4 15 -13 33 -20 17 -8 40 -20 49 -28 10 -8 18 -12 18 -8 0 4 10 -2 22 -14
12 -11 27 -20 34 -20 6 0 23 -9 38 -21 14 -11 26 -18 26 -14 0 4 7 -1 16 -9 8
-9 20 -13 26 -10 6 4 8 2 4 -4 -6 -10 30 -28 47 -24 4 1 7 -2 7 -8 0 -5 6 -10
14 -10 8 0 16 -4 18 -9 2 -5 10 -11 18 -13 8 -2 22 -10 32 -19 10 -9 31 -22
46 -30 15 -8 30 -18 34 -24 4 -5 8 -6 8 -1 0 4 15 -3 34 -18 19 -14 41 -26 48
-26 8 0 24 -9 36 -20 12 -12 22 -18 22 -14 0 4 8 0 18 -9 10 -10 22 -14 25
-11 4 4 9 -1 13 -10 3 -9 10 -14 14 -11 4 3 13 -2 20 -10 7 -8 19 -15 26 -15
8 0 14 -5 14 -11 0 -5 4 -8 9 -5 5 3 14 0 19 -7 6 -7 27 -19 47 -27 19 -7 35
-17 35 -22 0 -4 6 -8 13 -8 7 0 23 -9 34 -19 12 -11 24 -17 27 -14 3 4 6 0 6
-7 0 -7 3 -11 6 -7 3 3 28 -8 55 -24 28 -16 54 -29 58 -29 5 0 14 -7 21 -15 7
-9 15 -13 17 -11 3 2 13 -4 24 -15 10 -10 26 -19 34 -19 8 0 15 -5 15 -11 0
-5 5 -7 10 -4 6 3 13 -1 16 -9 3 -9 10 -14 14 -11 5 3 14 -1 22 -7 7 -7 34
-24 61 -37 26 -13 47 -29 47 -34 0 -6 3 -7 7 -4 3 4 12 2 20 -4 14 -13 83 -52
123 -72 14 -6 27 -14 30 -17 3 -3 15 -11 28 -17 12 -7 32 -19 45 -25 12 -7 24
-15 27 -18 3 -3 23 -15 45 -27 82 -43 120 -65 131 -74 6 -5 14 -6 17 -2 4 3 7
1 7 -5 0 -7 5 -12 11 -12 6 0 25 -11 42 -24 18 -14 36 -24 41 -24 4 1 15 -4
25 -11 21 -15 140 -85 211 -124 30 -17 57 -33 60 -36 3 -3 35 -22 72 -41 38
-19 68 -38 68 -42 0 -5 9 -8 20 -8 11 0 20 -4 20 -8 0 -4 18 -19 40 -32 22
-14 43 -35 46 -47 3 -13 9 -23 13 -23 10 0 8 -31 -3 -48 -4 -6 -4 -17 -1 -22
3 -6 -1 -13 -9 -16 -9 -3 -14 -9 -12 -13 3 -4 -7 -16 -21 -27 -15 -10 -32 -24
-38 -31 -7 -7 -15 -9 -19 -6 -3 4 -6 1 -6 -5 0 -7 -7 -12 -15 -12 -8 0 -15 -5
-15 -11 0 -5 -4 -7 -10 -4 -5 3 -10 2 -10 -4 0 -5 -14 -12 -30 -16 -17 -4 -28
-10 -25 -15 3 -4 -10 -14 -28 -21 -17 -7 -35 -17 -39 -23 -3 -5 -15 -11 -25
-12 -9 -2 -19 -8 -21 -14 -2 -5 -8 -8 -13 -4 -5 3 -9 1 -9 -4 0 -4 -16 -14
-35 -22 -19 -8 -35 -17 -35 -21 0 -4 -9 -11 -21 -14 -12 -4 -37 -18 -57 -32
-20 -13 -53 -32 -72 -41 -19 -9 -37 -19 -40 -22 -3 -4 -25 -17 -50 -31 -25
-13 -47 -27 -50 -30 -3 -3 -30 -19 -60 -36 -105 -57 -185 -106 -192 -117 -4
-6 -8 -7 -8 -2 0 5 -8 2 -18 -7 -10 -10 -22 -14 -25 -10 -4 3 -7 1 -7 -5 0 -7
-5 -12 -11 -12 -6 0 -22 -9 -36 -20 -14 -11 -29 -17 -34 -14 -5 3 -9 0 -9 -5
0 -6 -7 -11 -15 -11 -8 0 -15 -4 -15 -10 0 -5 -6 -10 -14 -10 -8 0 -17 -7 -20
-16 -3 -8 -10 -13 -15 -10 -5 4 -15 1 -23 -6 -7 -7 -19 -14 -27 -16 -7 -1 -20
-9 -28 -17 -8 -9 -18 -13 -23 -10 -4 3 -11 -2 -14 -11 -3 -8 -10 -12 -16 -9
-5 3 -10 1 -10 -5 0 -6 -4 -8 -10 -5 -5 3 -10 1 -10 -4 0 -6 -7 -11 -15 -11
-8 0 -15 -4 -15 -9 0 -5 -10 -13 -22 -17 -13 -3 -41 -19 -62 -35 -21 -16 -43
-26 -48 -23 -4 3 -8 0 -8 -7 0 -7 -3 -10 -6 -6 -3 3 -15 -3 -27 -13 -11 -11
-24 -17 -29 -14 -4 3 -8 1 -8 -4 0 -5 -13 -15 -30 -22 -16 -7 -28 -15 -26 -19
3 -4 -4 -7 -14 -8 -11 -1 -30 -11 -42 -23 -12 -11 -28 -18 -36 -15 -7 2 -11 1
-8 -4 3 -5 -5 -12 -19 -15 -14 -4 -25 -11 -25 -17 0 -6 -4 -7 -10 -4 -5 3 -10
1 -10 -4 0 -6 -7 -11 -15 -11 -8 0 -15 -4 -15 -10 0 -5 -3 -9 -7 -8 -5 1 -26
-9 -48 -23 -22 -13 -42 -22 -44 -21 -2 2 -7 -1 -10 -6 -6 -9 -128 -81 -178
-106 -13 -6 -23 -14 -23 -18 0 -5 -5 -8 -11 -8 -6 0 -23 -9 -39 -20 -15 -11
-29 -17 -32 -14 -3 2 -11 -2 -18 -11 -7 -8 -18 -15 -26 -15 -7 0 -17 -7 -22
-16 -5 -9 -13 -16 -18 -15 -5 0 -25 -10 -44 -22 -19 -11 -48 -28 -65 -36 -16
-8 -32 -18 -35 -21 -3 -3 -22 -14 -42 -23 -21 -10 -38 -22 -38 -28 0 -6 -4 -8
-9 -5 -5 3 -20 -3 -34 -14 -14 -11 -30 -20 -36 -20 -6 0 -11 -3 -11 -8 0 -4
-20 -16 -45 -27 -25 -11 -45 -24 -45 -29 0 -5 -3 -6 -6 -3 -4 3 -18 -3 -32
-13 -13 -11 -30 -20 -36 -20 -6 0 -19 -9 -29 -20 -9 -11 -24 -20 -32 -20 -8 0
-15 -5 -15 -11 0 -5 -4 -8 -9 -5 -5 4 -11 2 -13 -3 -1 -5 -10 -11 -18 -13 -8
-2 -23 -11 -34 -20 -10 -10 -22 -15 -26 -13 -4 3 -18 -5 -32 -18 -13 -12 -28
-24 -33 -26 -6 -2 -20 -7 -32 -12 -13 -5 -23 -13 -23 -20 0 -6 -6 -9 -12 -7
-7 3 -18 0 -25 -6 -33 -29 -41 -34 -47 -29 -3 4 -6 1 -6 -6 0 -7 -5 -9 -10 -6
-6 3 -10 1 -10 -4 0 -6 -6 -11 -12 -11 -12 0 -87 -46 -115 -70 -7 -6 -13 -7
-13 -3 0 4 -4 3 -8 -3 -4 -6 -28 -21 -54 -33 -27 -13 -48 -27 -48 -32 0 -6 -4
-8 -9 -4 -5 3 -16 -1 -24 -9 -8 -8 -17 -12 -21 -9 -3 4 -6 2 -6 -4 0 -5 -18
-18 -40 -29 -22 -10 -40 -23 -40 -27 0 -4 -13 -13 -30 -18 -16 -6 -30 -15 -30
-20 0 -5 -7 -9 -15 -9 -8 0 -15 -4 -15 -10 0 -5 -5 -10 -11 -10 -7 0 -22 -11
-34 -24 -13 -14 -25 -23 -27 -20 -3 2 -17 -7 -32 -21 -15 -14 -31 -25 -35 -25
-5 0 -12 -7 -15 -16 -3 -8 -10 -12 -16 -9 -5 3 -10 1 -10 -5 0 -6 -4 -8 -10
-5 -5 3 -10 -1 -10 -9 0 -9 -3 -15 -7 -14 -5 2 -29 -12 -55 -30 -26 -17 -51
-32 -57 -32 -6 0 -11 -4 -11 -9 0 -5 -10 -13 -22 -17 -13 -4 -31 -16 -40 -26
-9 -11 -19 -19 -22 -19 -15 1 -35 -12 -30 -20 3 -5 -1 -9 -9 -9 -23 0 -97
-102 -97 -136 0 -8 -4 -14 -8 -14 -7 0 -11 -24 -16 -95 -1 -17 -5 -36 -10 -43
-4 -7 -2 -12 4 -12 8 0 7 -6 -1 -21 -6 -12 -7 -24 -3 -28 12 -8 11 -64 -1 -73
-6 -5 -6 -8 2 -8 6 0 10 -9 8 -20 -2 -11 0 -22 5 -25 5 -3 7 -12 3 -20 -3 -8
0 -15 6 -15 6 0 10 -3 8 -8 -1 -4 8 -20 20 -36 13 -16 23 -26 23 -22 0 3 9 -2
20 -11 18 -16 37 -23 68 -25 6 -1 12 -5 12 -8 0 -4 29 -7 65 -6 37 0 65 -3 65
-9 0 -7 3 -7 8 0 4 6 21 10 37 10 17 0 33 -4 37 -10 5 -6 8 -6 8 1 0 10 57 10
103 0 9 -2 17 -1 17 2 0 9 114 7 129 -2 6 -4 11 -3 11 2 0 13 33 10 42 -3 5
-7 8 -7 8 0 0 10 76 12 86 3 3 -3 20 -2 39 2 19 4 37 5 40 2 7 -8 45 -10 45
-3 0 9 126 5 141 -5 7 -4 14 -3 16 2 3 10 114 11 131 0 6 -3 12 -2 14 3 2 5
24 6 51 1 26 -4 47 -4 47 -1 0 8 115 5 129 -3 6 -4 11 -3 11 2 0 13 33 10 42
-3 5 -7 8 -6 8 1 0 10 89 9 118 -1 6 -2 12 -1 12 3 0 9 114 7 129 -2 6 -4 11
-3 11 2 0 13 33 10 42 -3 5 -6 8 -5 8 2 0 9 7 10 25 3 14 -5 25 -6 25 -2 0 10
124 7 141 -4 7 -4 14 -3 16 2 3 10 115 10 132 0 6 -4 11 -3 11 1 0 9 46 10 55
1 3 -3 22 -2 41 2 19 4 37 4 40 -1 3 -5 12 -6 20 -1 9 5 35 6 60 2 24 -4 44
-4 44 -1 0 8 115 5 129 -3 6 -4 11 -3 11 2 0 13 33 10 42 -3 5 -7 8 -7 8 0 0
10 76 12 86 3 3 -3 20 -2 39 2 19 4 37 5 40 2 7 -8 45 -10 45 -3 0 9 126 5
141 -5 7 -4 14 -3 16 2 3 10 114 11 131 0 6 -3 12 -2 14 3 2 5 24 6 51 1 26
-4 47 -4 47 -1 0 8 115 5 129 -3 6 -4 11 -3 11 2 0 13 33 10 42 -3 5 -7 8 -6
8 1 0 10 89 9 118 -1 6 -2 12 -1 12 3 0 9 114 7 129 -2 6 -4 11 -3 11 2 0 13
33 10 42 -3 5 -6 8 -5 8 2 0 9 7 10 25 3 14 -5 25 -6 25 -2 0 10 124 7 141 -4
7 -4 14 -3 16 2 3 10 115 10 132 0 6 -4 11 -3 11 1 0 9 46 10 55 1 3 -3 22 -2
41 2 19 4 37 4 40 -1 3 -5 12 -6 20 -1 9 5 35 6 60 2 24 -4 44 -4 44 -1 0 8
115 5 129 -3 6 -4 11 -3 11 2 0 13 33 10 42 -3 5 -7 8 -7 8 0 0 10 76 12 86 3
3 -3 20 -2 39 2 19 4 37 5 40 2 7 -8 45 -10 45 -3 0 9 126 5 141 -5 7 -4 14
-3 16 2 3 10 115 10 132 0 6 -4 11 -3 11 1 0 9 46 10 55 1 3 -3 22 -2 41 2 19
4 37 4 40 -1 3 -5 12 -6 20 -1 9 5 35 6 60 2 24 -4 44 -4 44 -1 0 8 115 5 129
-3 6 -4 11 -3 11 2 0 13 33 10 42 -3 5 -7 8 -7 8 0 0 10 76 12 86 3 3 -3 21
-2 40 2 19 4 36 4 39 0 3 -4 21 -4 40 0 19 4 37 4 40 0 3 -4 21 -4 40 0 20 4
38 4 41 -1 3 -5 12 -6 20 -1 9 5 35 6 60 2 24 -4 44 -4 44 -1 0 8 115 5 129
-3 6 -4 11 -3 11 2 0 13 33 10 42 -3 5 -7 8 -7 8 0 0 10 76 12 86 3 3 -3 21
-2 40 2 19 4 36 4 39 0 3 -4 21 -4 40 0 19 4 37 4 40 0 3 -4 21 -4 40 0 20 4
38 4 41 -1 3 -5 12 -6 20 -1 9 5 35 6 60 2 24 -4 44 -4 44 -1 0 8 115 5 129
-3 6 -4 11 -3 11 2 0 13 33 10 42 -3 5 -7 8 -7 8 0 0 10 76 12 86 3 3 -3 21
-2 40 2 19 4 36 4 39 0 3 -4 21 -4 40 0 19 4 37 4 40 0 3 -4 21 -4 40 0 20 4
38 4 41 -1 3 -5 12 -6 20 -1 9 5 35 6 60 2 24 -4 44 -4 44 -1 0 8 115 5 129
-3 6 -4 11 -3 11 2 0 13 33 10 42 -3 5 -7 8 -7 8 0 0 10 76 12 86 3 3 -3 20
-2 39 2 19 4 37 5 40 2 7 -8 45 -10 45 -3 0 9 126 5 141 -5 7 -4 14 -3 16 2 3
10 115 10 132 0 6 -4 11 -3 11 1 0 9 46 10 55 1 3 -3 22 -2 41 2 19 4 37 4 40
-1 3 -5 12 -6 20 -1 9 5 35 6 60 2 24 -4 44 -4 44 -1 0 8 115 5 129 -3 6 -4
11 -3 11 2 0 13 33 10 42 -3 5 -7 8 -7 8 0 0 10 76 12 86 3 3 -3 20 -2 39 2
19 4 37 5 40 2 7 -8 45 -10 45 -3 0 9 126 5 141 -5 7 -4 14 -3 16 2 3 10 114
11 131 0 6 -3 12 -2 14 3 2 5 24 6 51 1 26 -4 47 -4 47 -1 0 8 115 5 129 -3 6
-4 11 -3 11 2 0 13 33 10 42 -3 5 -7 8 -6 8 1 0 10 89 9 118 -1 6 -2 12 -1 12
3 0 9 114 7 129 -2 6 -4 11 -3 11 2 0 13 33 10 42 -3 5 -6 8 -5 8 2 0 9 7 10
25 3 14 -5 25 -6 25 -2 0 10 124 7 141 -4 7 -4 14 -3 16 2 3 10 114 11 131 0
6 -3 13 0 15 6 4 10 8 9 16 -2 6 -8 11 -10 11 -4 0 5 14 9 30 8 17 -1 32 1 34
5 3 4 20 6 40 6 19 -1 33 2 30 6 -2 4 0 10 6 14 5 3 10 1 10 -6 0 -7 8 -2 19
9 10 12 21 19 25 15 3 -3 6 1 6 9 0 9 7 19 16 22 8 3 13 10 9 15 -3 5 -1 12 4
16 11 6 20 61 24 145 1 30 6 61 10 68 5 6 4 12 0 12 -5 0 -8 21 -8 47 0 27 -6
61 -13 77 -11 23 -11 27 0 20 10 -6 10 -4 -1 9 -7 9 -10 17 -6 17 4 0 2 7 -5
15 -7 8 -9 15 -5 15 5 0 0 9 -10 20 -11 13 -14 20 -6 20 8 0 7 5 -3 16 -9 8
-16 24 -16 35 0 10 -4 19 -9 19 -5 0 -11 10 -14 23 -8 30 -127 151 -127 129 0
-4 -4 -2 -8 3 -9 15 -105 70 -115 67 -4 -1 -7 2 -7 7 0 6 -22 22 -50 37 -27
15 -50 31 -50 36 0 5 -4 7 -9 3 -5 -3 -12 -1 -16 5 -4 6 -11 7 -17 4 -6 -4 -8
-2 -4 4 3 6 -8 15 -29 22 -19 6 -35 15 -35 20 0 4 -11 11 -25 14 -14 4 -25 11
-25 17 0 6 -5 7 -10 4 -6 -3 -10 -1 -10 4 0 6 -7 11 -15 11 -7 0 -18 8 -24 18
-5 9 -13 16 -18 16 -13 -2 -37 9 -51 23 -7 7 -20 13 -28 13 -8 0 -14 5 -14 11
0 6 -6 9 -12 7 -7 -3 -17 -1 -23 4 -5 5 -21 17 -34 28 -13 11 -32 20 -43 20
-10 0 -18 7 -18 16 0 8 -5 12 -10 9 -6 -3 -10 -1 -10 5 0 6 -4 9 -9 6 -5 -3
-20 3 -33 14 -14 11 -28 16 -32 13 -3 -3 -6 -1 -6 5 0 7 -6 12 -14 12 -7 0
-19 7 -26 15 -7 8 -16 13 -20 10 -4 -2 -17 5 -28 16 -12 11 -22 16 -22 12 0
-4 -6 1 -13 12 -8 10 -19 15 -24 12 -6 -4 -13 0 -17 8 -3 8 -10 15 -16 15 -6
0 -28 11 -49 24 -21 14 -42 22 -45 19 -3 -4 -6 -1 -6 5 0 6 -9 14 -20 17 -11
3 -26 12 -32 18 -14 13 -91 57 -148 85 -19 9 -37 20 -38 25 -2 4 -8 5 -13 1
-5 -3 -9 0 -9 5 0 6 -7 11 -15 11 -9 0 -18 7 -21 15 -4 8 -10 12 -15 9 -5 -3
-9 -1 -9 5 0 5 -13 12 -30 16 -16 4 -30 11 -30 16 0 5 -4 9 -10 9 -13 0 -163
89 -171 102 -3 5 -8 9 -10 8 -6 -2 -43 13 -49 19 -3 3 -25 17 -50 30 -79 43
-84 46 -96 57 -7 6 -26 17 -43 24 -17 7 -31 16 -31 21 0 5 -3 9 -7 8 -17 -2
-53 14 -53 24 0 6 -3 8 -6 4 -3 -3 -16 3 -27 14 -12 11 -27 17 -34 15 -7 -3
-13 -2 -13 2 0 4 -21 20 -48 37 -26 16 -50 33 -53 38 -3 5 -8 8 -10 7 -8 -3
-45 14 -61 28 -10 8 -18 12 -18 8 0 -4 -10 2 -22 14 -12 11 -28 20 -35 20 -7
0 -13 5 -13 11 0 5 -4 8 -9 4 -5 -3 -12 -1 -15 4 -3 5 -39 26 -78 46 -40 21
-93 51 -117 68 -24 17 -41 24 -37 16 4 -8 -2 -3 -13 10 -12 13 -21 20 -21 16
0 -3 -7 1 -16 9 -8 9 -20 14 -25 11 -5 -4 -9 -2 -9 3 0 5 -14 15 -30 22 -17 7
-49 26 -70 41 -22 16 -40 26 -40 22 0 -5 -4 -3 -8 2 -4 6 -20 17 -37 25 -16 8
-32 17 -35 20 -3 3 -34 20 -70 39 -36 19 -67 37 -70 40 -3 4 -31 20 -62 36
-32 17 -58 33 -58 38 0 4 -6 7 -14 7 -7 0 -19 7 -26 15 -7 9 -15 13 -17 11 -4
-4 -52 23 -128 72 -11 7 -32 17 -47 23 -16 6 -28 15 -28 19 0 5 -13 11 -29 15
-16 3 -32 13 -35 21 -3 8 -12 14 -19 14 -8 0 -26 9 -41 21 -14 11 -26 17 -26
12 0 -4 -4 -3 -8 2 -4 6 -18 16 -32 23 -31 15 -80 43 -114 65 -14 10 -26 15
-26 12 0 -3 -9 4 -20 15 -11 11 -27 20 -35 20 -8 0 -15 5 -15 11 0 5 -4 7 -10
4 -5 -3 -10 -3 -10 2 0 4 -21 19 -47 33 -51 26 -103 72 -103 89 0 6 -5 11 -11
11 -5 0 -7 5 -4 10 3 6 2 10 -4 10 -5 0 -8 8 -6 18 2 9 4 17 5 17 1 0 3 8 5
17 3 17 45 77 45 65 0 -3 12 5 26 18 15 14 30 22 35 19 5 -3 9 -1 9 4 0 5 20
19 45 32 25 13 45 27 45 32 0 5 5 6 10 3 6 -3 10 -2 10 4 0 10 38 27 53 23 4
-1 7 3 7 9 0 5 14 15 30 20 17 6 30 15 30 21 0 5 5 6 10 3 6 -3 10 -2 10 3 0
5 13 15 30 22 16 7 30 15 30 19 0 3 20 15 45 26 25 11 45 23 45 28 0 5 6 7 12
5 7 -3 21 5 31 16 10 12 16 14 12 6 -4 -10 -2 -9 8 3 8 9 18 17 22 17 4 0 20
9 36 21 16 11 29 18 29 14 0 -3 6 -1 12 5 13 12 79 53 88 55 20 6 48 22 64 37
10 9 23 15 28 12 4 -3 8 -1 8 3 0 5 21 20 48 33 26 14 49 28 52 31 9 10 55 33
63 31 4 -1 7 3 7 9 0 5 5 7 10 4 6 -3 13 1 16 9 3 9 12 16 20 16 8 0 22 8 32
18 10 9 25 18 33 20 8 2 16 8 17 13 2 5 8 7 13 3 5 -3 12 2 15 10 3 9 10 14
14 11 5 -3 15 1 23 9 8 8 18 12 22 8 3 -4 11 1 16 11 6 9 17 17 24 17 8 0 15
5 15 11 0 5 5 7 10 4 6 -3 10 -2 10 3 0 5 18 17 40 27 22 10 40 21 40 24 0 6
42 25 63 29 4 1 14 7 22 14 34 31 43 36 49 31 3 -4 6 -1 6 5 0 7 6 12 14 12 7
0 19 7 26 15 7 8 16 13 20 10 5 -3 10 -1 12 4 1 4 33 24 70 43 37 20 64 39 61
42 -4 3 3 6 15 6 12 0 22 5 22 11 0 5 4 8 9 4 6 -3 14 3 20 12 6 10 11 14 11
10 0 -5 13 1 29 12 15 11 40 25 55 31 14 5 26 14 26 20 0 5 3 10 8 9 15 -2 52
14 52 23 0 5 5 6 10 3 6 -3 13 1 16 9 3 9 10 13 15 10 5 -3 9 0 9 6 0 6 5 8
10 5 6 -3 10 -2 10 4 0 5 23 20 50 33 28 13 50 26 50 30 0 5 6 8 13 8 7 0 29
11 50 25 20 14 37 22 37 18 0 -4 5 0 11 10 5 9 18 17 28 17 11 0 22 7 25 16 3
8 10 12 16 9 5 -3 10 -3 10 2 0 4 12 17 27 27 14 11 23 14 19 8 -4 -7 -2 -12
3 -12 6 0 11 4 11 9 0 5 19 19 43 31 23 12 44 25 47 29 3 3 23 15 45 26 22 11
46 26 53 33 7 6 20 12 28 12 8 0 14 5 14 10 0 6 7 10 15 10 8 0 15 4 15 10 0
5 6 7 14 4 7 -3 16 2 19 10 4 9 13 16 22 16 8 0 15 5 15 11 0 5 4 8 9 5 5 -3
14 1 21 9 7 8 16 13 20 10 5 -3 15 4 23 15 8 12 18 20 23 18 9 -2 40 15 96 53
15 11 30 19 34 19 4 0 22 11 41 26 18 14 33 22 33 18 0 -4 8 0 18 9 10 10 22
14 25 10 4 -3 7 -1 7 5 0 7 6 12 13 12 7 0 23 9 34 19 12 11 24 17 27 14 3 -4
6 0 6 7 0 7 3 10 7 7 3 -4 16 1 27 11 12 10 46 34 76 53 30 18 57 37 58 41 2
5 8 6 13 2 5 -3 9 -1 9 4 0 5 21 24 48 42 26 19 49 38 50 42 2 4 9 8 16 8 7 0
31 16 53 35 23 19 46 35 53 35 6 0 9 4 6 8 -3 4 12 17 32 28 20 10 45 27 55
37 10 10 22 15 27 12 6 -4 10 2 10 11 0 10 3 15 6 11 4 -3 27 8 53 26 25 17
49 31 54 29 4 -1 7 2 7 8 0 5 7 10 15 10 8 0 15 3 15 8 0 4 16 16 35 26 42 23
155 128 155 144 0 7 4 12 8 12 5 0 17 18 28 40 10 22 22 40 25 40 7 0 23 59
20 73 0 4 3 7 7 7 10 0 11 5 15 75 3 48 -7 82 -28 97 -5 4 -6 8 -1 8 5 0 3 7
-4 15 -7 8 -16 13 -20 10 -4 -3 -11 2 -14 11 -3 8 -10 12 -16 9 -5 -3 -10 -2
-10 3 0 5 -15 10 -32 11 -103 6 -148 5 -148 -4 0 -5 -4 -4 -9 4 -7 11 -9 11
-14 0 -5 -12 -7 -12 -15 0 -7 9 -12 10 -16 2 -4 -6 -11 -9 -16 -6 -4 3 -35 6
-69 7 -34 1 -61 7 -61 13 0 5 -4 4 -9 -4 -6 -9 -10 -10 -16 -2 -5 9 -10 9 -21
0 -10 -8 -14 -8 -14 0 0 7 -8 8 -24 1 -16 -6 -28 -5 -36 3 -7 7 -10 7 -7 1 4
-7 -11 -10 -43 -10 -28 1 -50 5 -50 10 0 5 -6 3 -14 -3 -8 -7 -17 -8 -20 -3
-3 5 -28 9 -56 8 -27 0 -52 3 -54 9 -3 7 -5 7 -5 0 -1 -7 -1406 -8 -4206 -5
-2313 3 -4205 3 -4205 0 0 -10 -65 -5 -72 5 -5 7 -8 7 -8 0 0 -10 -52 -10
-303 -3 -55 2 -101 0 -103 -4z m7678 -719 c9 -1 15 -6 12 -11 -3 -4 4 -8 15
-8 11 0 28 -11 36 -24 15 -23 15 -27 0 -50 -10 -14 -21 -26 -25 -26 -4 0 -20
-11 -36 -25 -47 -41 -52 -44 -58 -38 -3 4 -6 1 -6 -5 0 -7 -6 -12 -14 -12 -8
0 -17 -7 -20 -16 -3 -8 -10 -13 -15 -10 -5 3 -25 -5 -45 -19 -20 -13 -36 -22
-36 -19 0 3 -12 -4 -26 -15 -15 -12 -33 -21 -40 -21 -7 0 -17 -6 -21 -12 -4
-7 -28 -24 -53 -37 -25 -14 -48 -29 -52 -35 -4 -6 -8 -8 -8 -4 0 6 -100 -49
-125 -69 -5 -5 -31 -19 -57 -33 -27 -14 -48 -29 -48 -33 0 -5 -4 -5 -10 -2 -5
3 -10 1 -10 -5 0 -6 -4 -8 -10 -5 -5 3 -10 1 -10 -4 0 -6 -3 -10 -7 -9 -9 3
-65 -32 -75 -47 -4 -5 -8 -6 -8 -2 0 5 -13 -1 -29 -12 -16 -12 -34 -21 -40
-21 -6 0 -11 -4 -11 -9 0 -5 -13 -12 -30 -16 -16 -4 -30 -11 -30 -16 0 -5 -15
-15 -34 -23 -18 -8 -37 -19 -40 -25 -4 -6 -12 -9 -17 -6 -5 4 -9 2 -9 -3 0 -5
-21 -20 -47 -33 -27 -13 -49 -27 -51 -31 -2 -5 -9 -8 -16 -8 -8 0 -25 -9 -40
-21 -14 -11 -26 -17 -26 -12 0 4 -4 3 -8 -3 -9 -13 -109 -74 -122 -74 -6 0
-10 -4 -10 -9 0 -5 -11 -12 -25 -15 -14 -4 -25 -11 -25 -17 0 -6 -4 -7 -10 -4
-6 3 -10 1 -10 -5 0 -6 -4 -9 -9 -6 -5 3 -20 -4 -33 -17 -14 -12 -32 -23 -39
-25 -8 -2 -16 -8 -17 -13 -2 -5 -8 -7 -13 -3 -5 3 -12 -2 -15 -10 -3 -9 -10
-14 -14 -11 -5 3 -15 -1 -23 -9 -8 -8 -17 -12 -21 -9 -3 4 -6 1 -6 -5 0 -7 -6
-12 -14 -12 -7 0 -19 -7 -26 -15 -7 -9 -15 -13 -18 -10 -3 3 -19 -6 -36 -18
-17 -13 -52 -34 -78 -47 -27 -13 -48 -28 -48 -33 0 -5 -7 -6 -15 -3 -9 3 -18
-1 -21 -9 -4 -8 -10 -13 -14 -10 -4 3 -11 -2 -14 -11 -3 -8 -10 -12 -16 -9 -5
3 -10 1 -10 -5 0 -6 -4 -9 -9 -5 -6 3 -14 -3 -20 -12 -6 -10 -11 -13 -11 -8 0
6 -5 3 -10 -5 -5 -8 -13 -16 -17 -16 -31 -6 -52 -18 -46 -28 3 -6 3 -8 -2 -4
-7 7 -63 -18 -75 -34 -3 -3 -12 -8 -19 -10 -8 -2 -23 -10 -33 -18 -10 -8 -24
-15 -31 -15 -7 -1 -11 -6 -10 -12 1 -5 -16 -16 -37 -23 -22 -7 -37 -17 -33
-23 4 -6 0 -8 -10 -4 -10 3 -17 2 -17 -3 0 -5 -10 -12 -22 -16 -13 -4 -25 -9
-28 -13 -8 -10 -42 -29 -82 -48 -21 -10 -38 -21 -38 -25 0 -5 -7 -8 -15 -8 -8
0 -15 -4 -15 -8 0 -4 -16 -14 -35 -21 -19 -7 -35 -16 -35 -21 0 -5 -7 -6 -17
-3 -10 4 -14 2 -10 -4 4 -6 -11 -18 -33 -28 -22 -10 -40 -22 -40 -27 0 -5 -4
-7 -8 -4 -5 3 -19 -4 -30 -15 -12 -11 -22 -17 -22 -13 0 4 -8 0 -18 -9 -10
-10 -22 -14 -25 -10 -4 3 -7 1 -7 -6 0 -7 -4 -9 -10 -6 -5 3 -10 1 -10 -5 0
-6 -4 -9 -9 -5 -6 3 -14 -3 -20 -12 -5 -10 -12 -17 -15 -16 -3 1 -23 -5 -43
-14 -58 -24 -178 -21 -188 5 -3 7 -10 10 -16 6 -6 -3 -14 -2 -18 3 -7 10 -71
42 -85 41 -5 0 -12 5 -15 10 -6 9 -62 40 -78 44 -5 1 -17 10 -27 20 -11 10
-28 18 -38 18 -11 0 -17 4 -13 9 3 5 -11 15 -30 22 -19 7 -35 17 -35 21 0 4
-9 8 -20 8 -11 0 -20 4 -20 8 0 5 -16 14 -35 22 -19 8 -35 17 -35 22 0 4 -4 8
-9 8 -5 0 -33 16 -63 35 -29 20 -63 38 -75 41 -13 4 -23 10 -23 14 0 4 -18 15
-40 24 -22 9 -40 19 -40 24 0 6 -26 19 -70 34 -3 1 -11 8 -18 15 -7 7 -20 13
-28 13 -8 0 -14 4 -14 10 0 5 -11 12 -25 16 -14 3 -25 10 -25 15 0 5 -5 9 -11
9 -6 0 -44 19 -83 43 -39 24 -86 50 -103 58 -18 7 -33 17 -33 21 0 5 -5 8 -12
8 -6 0 -26 11 -43 25 -18 13 -35 21 -39 18 -3 -4 -6 -2 -6 4 0 6 -11 14 -25
17 -14 4 -25 11 -25 17 0 6 -4 7 -10 4 -5 -3 -10 -1 -10 6 0 7 -3 9 -6 6 -4
-3 -18 2 -32 13 -13 11 -28 17 -33 14 -5 -3 -9 0 -9 5 0 6 -7 11 -15 11 -8 0
-15 4 -15 9 0 5 -13 14 -30 21 -16 7 -30 17 -30 23 0 6 -3 7 -6 4 -4 -4 -20 3
-35 14 -16 11 -29 17 -29 13 0 -4 -10 2 -23 14 -13 12 -27 19 -30 15 -4 -3 -7
0 -7 7 0 7 -3 11 -6 7 -4 -3 -13 1 -21 9 -8 8 -19 11 -25 8 -7 -4 -8 -2 -4 4
4 7 1 12 -8 12 -9 0 -16 4 -16 8 0 5 -16 14 -35 22 -19 8 -35 17 -35 22 0 4
-9 8 -20 8 -11 0 -20 5 -20 10 0 6 -5 10 -11 10 -6 0 -44 20 -84 44 -40 25
-76 42 -79 39 -3 -4 -6 -1 -6 5 0 11 -67 47 -82 44 -5 -1 -8 2 -8 8 0 5 -16
16 -35 24 -19 8 -35 20 -35 26 0 6 -4 9 -8 6 -5 -3 -24 5 -43 18 -19 12 -49
29 -66 37 -18 8 -33 17 -33 21 0 5 -5 8 -11 8 -6 0 -30 13 -54 29 -24 16 -53
32 -64 36 -12 3 -21 11 -21 17 0 6 -3 8 -6 5 -4 -4 -19 1 -33 11 -44 29 -64
41 -101 59 -19 9 -37 20 -40 23 -6 7 -37 20 -47 19 -3 -1 -10 6 -15 15 -5 9
-13 14 -19 11 -5 -4 -9 -2 -9 3 0 5 -8 12 -17 15 -10 4 -40 20 -68 37 -27 17
-57 34 -65 37 -8 4 -24 15 -34 25 -11 10 -26 18 -33 18 -8 0 -11 5 -8 10 3 6
-1 10 -10 10 -9 0 -14 4 -11 9 3 5 -1 12 -10 15 -9 3 -14 12 -11 20 3 7 1 18
-5 24 -6 6 -6 12 3 17 8 5 10 4 5 -3 -4 -7 -2 -12 3 -12 6 0 11 7 11 16 0 8 5
12 10 9 6 -3 10 -1 10 5 0 6 4 9 9 5 5 -3 12 -1 15 4 3 5 19 8 36 7 16 -1 30
0 30 4 0 5 5833 4 5872 -1z m-2902 -2741 c0 -4 7 -5 15 -2 14 6 127 -46 156
-72 9 -8 19 -11 22 -7 4 3 7 2 7 -3 0 -6 16 -16 35 -23 19 -7 35 -17 35 -22 0
-5 6 -9 14 -9 7 0 19 -7 26 -15 7 -8 16 -12 21 -9 5 3 12 -2 15 -11 4 -9 13
-14 20 -11 8 3 14 1 14 -4 0 -6 7 -10 16 -10 9 0 12 -5 8 -11 -4 -7 -1 -10 7
-7 8 3 19 -2 24 -9 6 -8 17 -15 25 -16 8 -1 26 -10 40 -20 13 -9 30 -17 37
-17 7 0 13 -3 13 -7 0 -5 18 -17 40 -27 22 -11 40 -22 40 -26 0 -8 39 -23 53
-21 4 1 10 -6 13 -14 3 -8 10 -12 15 -9 5 3 9 0 9 -5 0 -6 8 -11 18 -11 11 0
27 -9 37 -20 9 -10 20 -19 24 -18 3 1 24 -9 46 -23 22 -13 43 -23 48 -21 4 1
7 -3 7 -8 0 -6 6 -10 14 -10 8 0 16 -4 18 -8 2 -5 32 -24 68 -42 36 -19 79
-45 96 -57 17 -13 34 -20 37 -16 4 3 7 2 7 -3 0 -6 16 -16 35 -23 19 -7 35
-17 35 -22 0 -6 5 -7 10 -4 6 3 10 2 10 -2 0 -5 12 -14 28 -20 27 -11 82 -43
92 -53 16 -16 133 -75 143 -72 5 1 6 -1 3 -6 -2 -4 16 -19 42 -32 26 -14 53
-30 60 -37 8 -7 18 -11 23 -8 5 4 9 3 9 -2 0 -4 21 -19 48 -33 26 -13 65 -35
87 -49 22 -13 42 -24 45 -23 3 0 15 -9 28 -20 12 -12 22 -18 22 -13 0 4 9 0
20 -10 11 -10 20 -14 20 -10 0 5 7 0 15 -11 8 -10 15 -15 15 -11 0 5 13 -1 29
-12 15 -11 40 -25 55 -31 14 -5 26 -14 26 -20 0 -5 6 -10 14 -10 7 0 25 -9 40
-21 14 -11 26 -18 26 -15 0 3 27 -11 61 -30 33 -18 63 -34 65 -34 3 0 14 -9
26 -20 12 -10 25 -17 30 -14 4 3 8 1 8 -3 0 -5 27 -22 60 -38 33 -17 60 -34
60 -38 0 -5 4 -6 9 -3 5 3 14 -1 21 -9 7 -8 19 -15 26 -15 8 0 14 -4 14 -10 0
-5 7 -10 15 -10 8 0 15 -4 15 -8 0 -5 16 -14 35 -22 19 -8 35 -17 35 -21 0 -4
11 -10 24 -13 14 -3 32 -13 41 -22 8 -9 21 -17 28 -18 19 -3 77 -39 77 -49 0
-4 4 -6 9 -2 5 3 12 1 16 -5 6 -10 73 -41 78 -37 1 1 13 -8 27 -20 13 -13 29
-23 36 -23 6 0 17 -7 24 -15 7 -8 16 -12 21 -9 5 3 9 0 9 -5 0 -6 7 -11 15
-11 8 0 15 -4 15 -9 0 -5 11 -12 25 -15 14 -4 25 -11 25 -17 0 -6 5 -7 10 -4
6 3 10 1 10 -4 0 -6 7 -11 15 -11 8 0 15 -4 15 -10 0 -5 7 -7 15 -4 8 4 15 2
15 -3 0 -4 17 -17 38 -28 20 -11 45 -28 55 -39 9 -10 17 -16 17 -12 0 4 13 -6
28 -21 30 -29 32 -39 18 -62 -6 -9 -5 -12 2 -7 6 3 13 2 17 -4 3 -5 -1 -10 -9
-10 -8 0 -22 -7 -30 -16 -9 -8 -16 -13 -16 -9 0 3 -5 3 -12 -1 -27 -17 -258
-25 -258 -9 0 7 -3 7 -8 0 -8 -12 -6253 -14 -6245 -2 4 6 -28 12 -49 8 -5 0
-8 4 -8 10 0 5 -4 7 -10 4 -5 -3 -10 -1 -10 5 0 6 -4 8 -10 5 -6 -4 -7 1 -3
11 4 10 2 15 -3 11 -5 -3 -10 3 -10 13 0 10 5 16 10 13 6 -4 6 1 2 13 -4 10
-4 15 0 12 3 -4 22 10 41 30 19 20 36 35 38 32 1 -3 17 6 35 20 18 14 37 24
42 23 4 -2 8 2 8 8 0 5 5 7 10 4 6 -3 10 -3 10 2 0 4 23 19 50 32 28 14 50 29
50 34 0 4 4 6 9 3 5 -3 14 1 21 9 7 8 18 15 26 15 7 0 17 7 22 16 5 9 13 16
18 16 17 1 39 12 90 44 29 18 54 30 58 27 3 -4 6 -1 6 5 0 7 5 12 10 12 6 0
20 9 32 20 12 10 25 17 30 14 4 -3 8 0 8 5 0 6 5 11 11 11 6 0 17 7 26 15 8 8
19 13 24 10 5 -4 9 -1 9 5 0 6 4 9 9 5 6 -3 14 3 20 12 6 10 11 14 11 9 0 -5
9 -1 20 9 11 10 20 15 20 12 0 -4 8 1 18 11 18 16 73 49 90 53 4 1 24 13 44
25 21 13 42 24 48 24 5 0 10 5 10 10 0 6 4 10 9 10 11 0 113 61 122 73 3 5 9
8 13 8 10 -1 41 12 46 20 3 4 12 9 19 11 8 2 23 10 33 18 10 8 20 13 21 10 2
-5 14 4 51 37 8 7 16 9 20 6 3 -4 6 -2 6 3 0 6 16 16 35 24 19 8 35 18 35 22
0 5 4 7 9 4 5 -3 14 1 21 9 7 8 19 15 26 15 8 0 14 5 14 11 0 5 5 7 10 4 6 -3
13 1 16 9 3 9 10 14 14 11 4 -3 13 2 20 10 7 8 19 15 26 15 8 0 14 4 14 9 0 5
11 12 25 15 14 4 25 11 25 17 0 6 4 8 9 4 5 -3 17 2 25 11 9 8 16 12 16 8 0
-4 8 0 18 8 9 8 40 28 67 44 28 15 52 31 55 34 13 14 68 39 74 33 3 -3 6 -1 6
5 0 7 7 12 15 12 8 0 15 4 15 9 0 5 10 13 22 17 13 4 28 14 35 23 7 9 13 12
13 8 0 -5 12 1 26 12 15 12 31 21 36 21 5 0 16 7 25 15 8 8 19 13 24 10 5 -4
9 -1 9 4 0 6 7 11 15 11 8 0 15 5 15 11 0 5 5 7 10 4 6 -3 10 -3 10 2 0 4 10
13 23 19 39 20 182 103 193 113 7 5 15 7 18 4 3 -4 6 -1 6 5 0 7 7 12 15 12 9
0 18 7 21 15 4 8 10 13 14 10 4 -3 19 4 33 15 14 11 29 20 34 20 5 0 19 9 31
20 12 12 22 18 22 15 0 -6 48 20 107 58 24 15 47 27 53 27 5 0 10 5 10 10 0 6
6 10 14 10 8 0 22 7 30 16 9 8 16 12 16 7 0 -4 7 0 14 10 8 10 16 18 18 18 13
-2 48 13 48 20 0 5 3 8 8 7 4 -1 34 15 67 37 32 21 65 38 72 38 7 0 13 4 13 9
0 4 7 8 15 8 8 0 15 4 15 8 0 4 16 14 35 21 22 8 33 17 29 24 -4 7 -4 9 1 5 4
-4 30 4 57 18 63 32 168 52 168 32z"/>
</g>
</svg>
